<?xml version="1.0" encoding="utf-8"?>
<!-- Generator: Adobe Illustrator 22.1.0, SVG Export Plug-In . SVG Version: 6.00 Build 0)  -->
<svg version="1.1" id="Layer_1" xmlns="http://www.w3.org/2000/svg" xmlns:xlink="http://www.w3.org/1999/xlink" x="0px" y="0px"
	 viewBox="0 0 21 24" style="enable-background:new 0 0 21 24;" xml:space="preserve">
<style type="text/css">
	.st0{fill:#333333;}
</style>
<g id="surface1">
	<path class="st0" d="M21,2.7v18.7c0,0.6-0.5,1.2-1.2,1.2h-5.4v-8.1h2.7l0.4-3.2h-3.1v-2c0-0.9,0.3-1.5,1.6-1.5h1.7V4.8
		c-0.3,0-1.3-0.1-2.4-0.1c-2.4,0-4.1,1.5-4.1,4.2v2.3H8.5v3.2h2.7v8.1H1.2C0.5,22.5,0,22,0,21.3V2.7C0,2,0.5,1.5,1.2,1.5h18.7
		C20.5,1.5,21,2,21,2.7z"/>
</g>
</svg>
