<svg id="f491e4ac-d83a-41ee-a973-91dbe0aaf8e4" data-name="Layer 1" xmlns="http://www.w3.org/2000/svg" width="14.86" height="16.79" viewBox="0 0 14.86 16.79">
  <path id="afa013ed-16c0-4a54-a793-4cd413cfc72c" data-name="Icon metro-gift" d="M11.74,5.11a6.4,6.4,0,0,0,.85-.71,3.69,3.69,0,0,0,1.05-1.92A2.12,2.12,0,0,0,13.11.57,2,2,0,0,0,11.66,0,3.52,3.52,0,0,0,9.28,1.08,9.48,9.48,0,0,0,7.19,4.8,7.62,7.62,0,0,0,5.43,1.24,2.72,2.72,0,0,0,3.57.43,2,2,0,0,0,2.17,1a2.32,2.32,0,0,0,.25,3.25,5,5,0,0,0,1.18.87H0V9.36H1.06v7.43H13.8V9.36h1.06V5.11ZM10.12,1.93a2.32,2.32,0,0,1,1.54-.74.87.87,0,0,1,.6.22c.43.43.19,1.43-.52,2.14A7.42,7.42,0,0,1,9.18,5.11H8.34a8.27,8.27,0,0,1,1.78-3.18Zm-7.3.54A.8.8,0,0,1,3,1.83a.75.75,0,0,1,.55-.2,1.43,1.43,0,0,1,1,.45A5.85,5.85,0,0,1,5.92,4.67l0,.09-.09,0A5.91,5.91,0,0,1,3.27,3.4,1.57,1.57,0,0,1,2.82,2.47ZM6.37,15.73H2.12V8.83H6.37Zm0-7.43H1.06V6.17H6.37Zm6.37,7.43H8.49V8.83h4.25ZM13.8,8.3H8.49V6.17H13.8Z"/>
</svg>
