<?xml version="1.0" encoding="UTF-8"?>
<svg xmlns="http://www.w3.org/2000/svg" xmlns:xlink="http://www.w3.org/1999/xlink" width="25px" height="18px" viewBox="0 0 25 18" version="1.1">
<g id="surface1">
<path style=" stroke:none;fill-rule:nonzero;fill:rgb(0%,0%,0%);fill-opacity:1;" d="M 0.660156 1.382812 L 24.339844 1.382812 C 24.734375 1.382812 25 1.105469 25 0.691406 C 25 0.277344 24.734375 0 24.339844 0 L 0.660156 0 C 0.265625 0 0 0.277344 0 0.691406 C 0 1.105469 0.265625 1.382812 0.660156 1.382812 Z M 0.660156 1.382812 "/>
<path style=" stroke:none;fill-rule:nonzero;fill:rgb(0%,0%,0%);fill-opacity:1;" d="M 24.339844 8.308594 L 0.660156 8.308594 C 0.265625 8.308594 0 8.585938 0 9 C 0 9.414062 0.265625 9.691406 0.660156 9.691406 L 24.339844 9.691406 C 24.734375 9.691406 25 9.414062 25 9 C 25 8.585938 24.734375 8.308594 24.339844 8.308594 Z M 24.339844 8.308594 "/>
<path style=" stroke:none;fill-rule:nonzero;fill:rgb(0%,0%,0%);fill-opacity:1;" d="M 24.339844 16.617188 L 0.660156 16.617188 C 0.265625 16.617188 0 16.894531 0 17.308594 C 0 17.722656 0.265625 18 0.660156 18 L 24.339844 18 C 24.734375 18 25 17.722656 25 17.308594 C 25 16.894531 24.734375 16.617188 24.339844 16.617188 Z M 24.339844 16.617188 "/>
</g>
</svg>
