<?xml version="1.0" encoding="UTF-8"?>
<svg xmlns="http://www.w3.org/2000/svg" xmlns:xlink="http://www.w3.org/1999/xlink" width="23px" height="23px" viewBox="0 0 15 15" version="1.1">
<g id="surface1">
<path style="fill-rule:nonzero;fill:rgb(0%,0%,0%);fill-opacity:1;stroke-width:1;stroke-linecap:butt;stroke-linejoin:miter;stroke:rgb(0%,0%,0%);stroke-opacity:1;stroke-miterlimit:10;" d="M 17.300052 16.496771 C 20.799167 12.600781 20.50151 6.601354 16.598906 3.003021 C 12.702917 -0.601927 6.597656 -0.0992188 3.098542 3.796771 C -0.400573 7.699375 -0.102917 13.698802 3.799688 17.297135 C 7.398021 20.597813 12.901354 20.597813 16.598906 17.297135 L 23.901406 24.599635 C 24.099844 24.798073 24.3975 24.798073 24.602552 24.599635 C 24.80099 24.401198 24.80099 24.096927 24.602552 23.89849 Z M 10.202604 18.798646 C 5.499635 18.798646 1.702865 15.001875 1.702865 10.298906 C 1.702865 5.602552 5.499635 1.799167 10.202604 1.799167 C 14.898958 1.799167 18.702344 5.602552 18.702344 10.298906 C 18.702344 15.001875 14.898958 18.798646 10.202604 18.798646 Z M 10.202604 18.798646 " transform="matrix(0.590551,0,0,0.590551,0.0295276,0)"/>
</g>
</svg>
