<?xml version="1.0" encoding="UTF-8" standalone="no"?>
<!-- Generator: Adobe Illustrator 16.0.0, SVG Export Plug-In . SVG Version: 6.00 Build 0)  -->

<svg
   xmlns:dc="http://purl.org/dc/elements/1.1/"
   xmlns:cc="http://creativecommons.org/ns#"
   xmlns:rdf="http://www.w3.org/1999/02/22-rdf-syntax-ns#"
   xmlns:svg="http://www.w3.org/2000/svg"
   xmlns="http://www.w3.org/2000/svg"
   xmlns:sodipodi="http://sodipodi.sourceforge.net/DTD/sodipodi-0.dtd"
   xmlns:inkscape="http://www.inkscape.org/namespaces/inkscape"
   version="1.1"
   id="Layer_1"
   x="0px"
   y="0px"
   width="612px"
   height="792px"
   viewBox="0 0 612 792"
   enable-background="new 0 0 612 792"
   xml:space="preserve"
   inkscape:version="0.91 r13725"
   sodipodi:docname="icon-menu-white.svg"><metadata
     id="metadata16"><rdf:RDF><cc:Work
         rdf:about=""><dc:format>image/svg+xml</dc:format><dc:type
           rdf:resource="http://purl.org/dc/dcmitype/StillImage" /><dc:title>hamburger-ui</dc:title></cc:Work></rdf:RDF></metadata><defs
     id="defs14" /><sodipodi:namedview
     pagecolor="#ffffff"
     bordercolor="#666666"
     borderopacity="1"
     objecttolerance="10"
     gridtolerance="10"
     guidetolerance="10"
     inkscape:pageopacity="0"
     inkscape:pageshadow="2"
     inkscape:window-width="1920"
     inkscape:window-height="1153"
     id="namedview12"
     showgrid="false"
     inkscape:zoom="0.2979798"
     inkscape:cx="306"
     inkscape:cy="396"
     inkscape:window-x="-4"
     inkscape:window-y="-4"
     inkscape:window-maximized="1"
     inkscape:current-layer="Layer_1" /><title
     id="title3">hamburger-ui</title><path
     inkscape:connector-curvature="0"
     id="path6"
     d="m 85.68,285.84 440.64,0 c 7.344,0 12.239,-4.896 12.239,-12.24 0,-7.344 -4.896,-12.24 -12.239,-12.24 l -440.64,0 c -7.344,0 -12.24,4.896 -12.24,12.24 0,7.344 4.896,12.24 12.24,12.24 z"
     style="fill:#ffffff" /><path
     inkscape:connector-curvature="0"
     id="path8"
     d="m 526.32,408.24 -440.64,0 c -7.344,0 -12.24,4.896 -12.24,12.24 0,7.344 4.896,12.239 12.24,12.239 l 440.64,0 c 7.344,0 12.239,-4.896 12.239,-12.239 10e-4,-7.344 -4.895,-12.24 -12.239,-12.24 z"
     style="fill:#ffffff" /><path
     inkscape:connector-curvature="0"
     id="path10"
     d="m 526.32,555.12 -440.64,0 c -7.344,0 -12.24,4.896 -12.24,12.24 0,7.344 4.896,12.239 12.24,12.239 l 440.64,0 c 7.344,0 12.239,-4.896 12.239,-12.239 10e-4,-7.344 -4.895,-12.24 -12.239,-12.24 z"
     style="fill:#ffffff" /></svg>