<svg xmlns="http://www.w3.org/2000/svg" viewBox="0 0 32 32"><defs/><defs><clipPath id="a"><path d="M0 0h32v32H0z"/></clipPath></defs><g clip-path="url(#a)"><path data-name="Path 31" d="M16.475 7.943c.6-.532 1.169-1.113 1.811-1.6a6.733 6.733 0 019.123 1.007 6.886 6.886 0 011.493 5.425 9.743 9.743 0 01-2.7 5.385 53.205 53.205 0 01-6.013 5.605c-1.153.961-2.313 1.912-3.461 2.879a.3.3 0 01-.479 0c-1.631-1.373-3.288-2.716-4.906-4.1a38.082 38.082 0 01-5.207-5.15 9.3 9.3 0 01-2.019-4.222c-.649-3.8 1.374-7.16 5.075-7.993a6.532 6.532 0 015.865 1.45c.502.42.961.888 1.418 1.314zm.02 2.27c-.638-.691-1.235-1.406-1.9-2.047a5.368 5.368 0 00-4.608-1.6 4.813 4.813 0 00-4.162 3.316 6.1 6.1 0 00.537 5.145 19.323 19.323 0 004.258 4.881c1.29 1.168 2.627 2.283 3.952 3.411.623.531 1.267 1.037 1.909 1.56.117-.082.219-.143.308-.219 1.88-1.6 3.776-3.172 5.63-4.8a24.118 24.118 0 003.42-3.6 7.039 7.039 0 001.548-5.561 5.1 5.1 0 00-6.086-4.1 5.688 5.688 0 00-3.01 1.657c-.624.631-1.197 1.302-1.797 1.958z"/></g></svg>
