<?xml version="1.0" encoding="utf-8"?>
<!-- Generator: Adobe Illustrator 16.0.0, SVG Export Plug-In . SVG Version: 6.00 Build 0)  -->
<!DOCTYPE svg PUBLIC "-//W3C//DTD SVG 1.1//EN" "http://www.w3.org/Graphics/SVG/1.1/DTD/svg11.dtd">
<svg version="1.1" id="Layer_1" xmlns="http://www.w3.org/2000/svg" xmlns:xlink="http://www.w3.org/1999/xlink" x="0px" y="0px"
	 width="19px" height="19px" viewBox="0.5 1 19 19" enable-background="new 0.5 1 19 19" xml:space="preserve">
<path d="M10.707,10.5l8.646-8.646c0.194-0.195,0.194-0.512,0-0.707c-0.195-0.195-0.513-0.195-0.707,0L10,9.793L1.354,1.147
	c-0.195-0.195-0.512-0.195-0.707,0s-0.195,0.512,0,0.707L9.293,10.5l-8.646,8.646c-0.195,0.194-0.195,0.512,0,0.707
	c0.098,0.098,0.226,0.146,0.354,0.146s0.256-0.049,0.354-0.146l8.646-8.646l8.646,8.646c0.099,0.098,0.227,0.146,0.354,0.146
	s0.256-0.049,0.354-0.146c0.194-0.195,0.194-0.513,0-0.707L10.709,10.5H10.707z"/>
</svg>
