<?xml version="1.0" encoding="utf-8"?>
<!-- Generator: Adobe Illustrator 22.1.0, SVG Export Plug-In . SVG Version: 6.00 Build 0)  -->
<svg version="1.1" id="Layer_1" xmlns="http://www.w3.org/2000/svg" xmlns:xlink="http://www.w3.org/1999/xlink" x="0px" y="0px"
	 viewBox="0 0 21 24" style="enable-background:new 0 0 21 24;" xml:space="preserve">
<style type="text/css">
	.st0{fill:#333333;}
</style>
<g id="surface1">
	<path class="st0" d="M10.5,6.6c-3,0-5.4,2.4-5.4,5.4s2.4,5.4,5.4,5.4s5.4-2.4,5.4-5.4S13.5,6.6,10.5,6.6z M10.5,15.5
		C8.6,15.5,7,13.9,7,12c0-1.9,1.6-3.5,3.5-3.5c1.9,0,3.5,1.6,3.5,3.5C14,13.9,12.4,15.5,10.5,15.5z M17.4,6.4c0,0.7-0.6,1.3-1.3,1.3
		c-0.7,0-1.3-0.6-1.3-1.3c0-0.7,0.6-1.3,1.3-1.3C16.8,5.1,17.4,5.7,17.4,6.4z M20.9,7.7c-0.1-1.7-0.5-3.2-1.7-4.4
		C18,2,16.5,1.6,14.8,1.6c-1.7-0.1-6.9-0.1-8.7,0C4.5,1.6,3,2,1.8,3.3C0.5,4.5,0.2,6,0.1,7.7C0,9.4,0,14.6,0.1,16.3
		c0.1,1.7,0.5,3.2,1.7,4.4C3,22,4.5,22.3,6.2,22.4c1.7,0.1,6.9,0.1,8.7,0c1.7-0.1,3.2-0.5,4.4-1.7c1.2-1.2,1.6-2.7,1.7-4.4
		C21,14.6,21,9.4,20.9,7.7z M18.7,18.2c-0.4,0.9-1.1,1.6-2,2c-1.4,0.6-4.7,0.4-6.2,0.4s-4.8,0.1-6.2-0.4c-0.9-0.4-1.6-1.1-2-2
		c-0.6-1.4-0.4-4.7-0.4-6.2S1.8,7.2,2.3,5.8c0.4-0.9,1.1-1.6,2-2C5.7,3.3,9,3.4,10.5,3.4s4.8-0.1,6.2,0.4c0.9,0.4,1.6,1.1,2,2
		c0.5,1.4,0.4,4.7,0.4,6.2S19.2,16.8,18.7,18.2z"/>
</g>
</svg>
