<?xml version="1.0" encoding="utf-8"?>
<!-- Generator: Adobe Illustrator 22.1.0, SVG Export Plug-In . SVG Version: 6.00 Build 0)  -->
<svg version="1.1" id="Layer_1" xmlns="http://www.w3.org/2000/svg" xmlns:xlink="http://www.w3.org/1999/xlink" x="0px" y="0px"
	 viewBox="0 0 240 20" style="enable-background:new 0 0 240 20;" xml:space="preserve">
<style type="text/css">
	.st0{fill:#FFFFFF;}
</style>
<path class="st0" d="M12.8,15.5v2.9c-0.5,0.3-1.1,0.5-1.7,0.6c-0.6,0.1-1.2,0.1-1.9,0.1c-2.6,0-4.8-0.9-6.5-2.6
	C0.9,14.8,0,12.6,0,10c0-2.6,0.9-4.8,2.7-6.5s4-2.6,6.5-2.6c0.6,0,1.2,0.1,1.9,0.1c0.6,0.1,1.1,0.2,1.6,0.5v3
	c-0.5-0.2-1.1-0.4-1.6-0.6c-0.6-0.1-1.2-0.2-1.9-0.2c-1.8,0-3.2,0.6-4.4,1.8S3.1,8.2,3.1,10s0.6,3.3,1.8,4.5s2.7,1.8,4.4,1.8
	c0.7,0,1.3-0.1,1.9-0.2S12.2,15.8,12.8,15.5z M30.8,18.8v-8h-9.6v8h-3V1.1h3V8h9.6V1.1h3v17.7H30.8z M40.6,18.8V1.1h3v17.7H40.6z
	 M66.1,1.1v17.8h-0.5L53.3,7.4v11.4h-3V0.9h0.4L63,12.3V1.1H66.1z M75.5,18.8V3.9h-4.3V1.1h11.7v2.8h-4.3v14.9
	C78.5,18.8,75.5,18.8,75.5,18.8z M88,18.8V1.1h3v17.7H88z M117.7,18.8l-1.7-1.8c-0.9,0.7-1.8,1.3-2.8,1.7c-1,0.4-1.9,0.6-2.9,0.6
	s-1.9-0.2-2.6-0.5c-0.7-0.3-1.4-0.7-1.8-1.2c-0.4-0.4-0.6-0.8-0.8-1.3c-0.2-0.5-0.2-0.9-0.2-1.4c0-0.7,0.2-1.5,0.6-2.3
	c0.4-0.7,1.1-1.5,2.2-2.2l1.4-0.9L109,9.3c-0.7-0.7-1.1-1.4-1.4-2c-0.3-0.6-0.4-1.3-0.4-1.9c0-0.6,0.1-1.1,0.3-1.6
	c0.2-0.5,0.6-0.9,0.9-1.4c0.4-0.4,1-0.8,1.6-1.1s1.3-0.4,2-0.4c0.7,0,1.3,0.1,1.9,0.3c0.6,0.2,1,0.5,1.4,0.9
	c0.4,0.4,0.7,0.9,0.9,1.4c0.2,0.5,0.3,1.1,0.3,1.5c0,1-0.3,1.9-0.9,2.7c-0.6,0.8-1.4,1.5-2.3,2.2l2.8,3.2c0.3-0.4,0.6-0.9,0.9-1.5
	c0.2-0.6,0.5-1.1,0.7-1.7h2.7c-0.3,1.1-0.7,2-1.1,2.8c-0.4,0.9-0.9,1.6-1.4,2.3l3.4,3.8L117.7,18.8L117.7,18.8z M108.4,15.8
	c0.2,0.2,0.5,0.4,0.9,0.6c0.4,0.1,0.8,0.2,1.2,0.2c0.7,0,1.4-0.1,2-0.4c0.7-0.2,1.3-0.7,1.9-1.2l-3.5-3.8l-1.1,0.7
	c-0.7,0.4-1.2,0.9-1.5,1.2c-0.3,0.4-0.4,0.9-0.4,1.3c0,0.2,0.1,0.5,0.1,0.7C108.1,15.4,108.2,15.7,108.4,15.8z M111.1,7.4l0.5,0.6
	c0.6-0.4,1.2-0.8,1.5-1.2c0.4-0.4,0.6-0.9,0.6-1.5c0-0.2-0.1-0.4-0.1-0.6c-0.1-0.2-0.2-0.4-0.4-0.6c-0.1-0.1-0.3-0.2-0.6-0.4
	c-0.2-0.1-0.4-0.1-0.7-0.1c-0.2,0-0.5,0.1-0.7,0.1c-0.2,0.1-0.4,0.2-0.6,0.4c-0.2,0.2-0.3,0.4-0.4,0.6c-0.1,0.2-0.1,0.5-0.1,0.7
	c0,0.3,0.1,0.7,0.2,1C110.5,6.6,110.8,7,111.1,7.4z M140,14.3c-0.6,0-1,0-1.4-0.1c-0.4-0.1-0.7-0.1-1.1-0.1v4.7h-3V1.1h6.1
	c2.3,0,4.2,0.6,5.5,1.8c1.4,1.2,2,2.7,2,4.6c0,2.1-0.7,3.8-2.2,5S142.5,14.3,140,14.3z M140.3,3.8h-2.8v7.6c0.3,0.1,0.7,0.1,1.1,0.1
	s0.9,0.1,1.4,0.1c1.8,0,3.1-0.4,3.8-1.1c0.7-0.7,1.1-1.7,1.1-3c0-1-0.4-1.9-1.1-2.6S142,3.8,140.3,3.8z M162.8,18.8l-1.5-3.5h-7.2
	l-1.5,3.5h-3.4l8.3-18h0.4l8.3,18H162.8z M155.2,12.7h5l-2.5-5.9C157.7,6.8,155.2,12.7,155.2,12.7z M176.1,13.3
	c-0.6,0-1.1,0-1.5-0.1s-0.8-0.1-1.2-0.2v5.7h-3V1.1h6.7c2.3,0,4.1,0.5,5.4,1.5s1.9,2.5,1.9,4.3c0,1.4-0.3,2.5-0.9,3.4
	c-0.6,0.9-1.5,1.7-2.6,2.2l3.9,6.3h-3.4l-3.4-5.6c-0.3,0.1-0.6,0.1-0.9,0.1C177.1,13.3,176.1,13.3,176.1,13.3z M176.9,3.8h-3.3v6.6
	c0.4,0.1,0.7,0.1,1.2,0.1c0.4,0.1,0.9,0.1,1.5,0.1c1.8,0,3-0.3,3.8-0.9c0.8-0.6,1.2-1.5,1.2-2.7c0-0.9-0.3-1.7-0.9-2.3
	C179.6,4.1,178.5,3.8,176.9,3.8z M200.4,18.8l-7.8-9v9h-3V1.1h3v7.8l7.5-7.8h3.9l-8,8.2l8.3,9.6C204.4,18.8,200.4,18.8,200.4,18.8z
	 M220,16v2.8h-11.6V1.1h11.3v2.8h-8.4v4.1h8v2.8h-8V16L220,16L220,16z M231.4,13.3c-0.6,0-1.1,0-1.5-0.1c-0.4-0.1-0.8-0.1-1.2-0.2
	v5.7h-3V1.1h6.7c2.3,0,4.1,0.5,5.4,1.5c1.2,1.1,1.9,2.5,1.9,4.3c0,1.4-0.3,2.5-0.9,3.4c-0.6,0.9-1.5,1.7-2.6,2.2l3.9,6.3h-3.4
	l-3.4-5.6c-0.3,0.1-0.6,0.1-0.9,0.1C232.3,13.3,231.4,13.3,231.4,13.3z M232.2,3.8h-3.3v6.6c0.4,0.1,0.7,0.1,1.2,0.1
	c0.4,0.1,0.9,0.1,1.5,0.1c1.8,0,3-0.3,3.8-0.9c0.8-0.6,1.2-1.5,1.2-2.7c0-0.9-0.3-1.7-0.9-2.3C234.9,4.1,233.8,3.8,232.2,3.8z"/>
</svg>
