<?xml version="1.0" encoding="UTF-8"?>
<svg xmlns="http://www.w3.org/2000/svg" xmlns:xlink="http://www.w3.org/1999/xlink" width="17px" height="17px" viewBox="0 0 17 17" version="1.1">
<g id="surface1">
<path style=" stroke:none;fill-rule:nonzero;fill:rgb(0%,0%,0%);fill-opacity:1;" d="M 11.21875 8.160156 L 8.839844 8.160156 L 8.839844 5.78125 C 8.839844 5.574219 8.703125 5.441406 8.5 5.441406 C 8.296875 5.441406 8.160156 5.574219 8.160156 5.78125 L 8.160156 8.160156 L 5.78125 8.160156 C 5.574219 8.160156 5.441406 8.296875 5.441406 8.5 C 5.441406 8.703125 5.574219 8.839844 5.78125 8.839844 L 8.160156 8.839844 L 8.160156 11.21875 C 8.160156 11.425781 8.296875 11.558594 8.5 11.558594 C 8.703125 11.558594 8.839844 11.425781 8.839844 11.21875 L 8.839844 8.839844 L 11.21875 8.839844 C 11.425781 8.839844 11.558594 8.703125 11.558594 8.5 C 11.558594 8.296875 11.425781 8.160156 11.21875 8.160156 Z M 11.21875 8.160156 "/>
<path style=" stroke:none;fill-rule:nonzero;fill:rgb(0%,0%,0%);fill-opacity:1;" d="M 8.5 0 C 3.808594 0 0 3.808594 0 8.5 C 0 13.191406 3.808594 17 8.5 17 C 13.191406 17 17 13.191406 17 8.5 C 17 3.808594 13.191406 0 8.5 0 Z M 8.5 16.320312 C 4.148438 16.320312 0.679688 12.851562 0.679688 8.5 C 0.679688 4.148438 4.148438 0.679688 8.5 0.679688 C 12.851562 0.679688 16.320312 4.148438 16.320312 8.5 C 16.320312 12.785156 12.785156 16.320312 8.5 16.320312 Z M 8.5 16.320312 "/>
</g>
</svg>
