<?xml version="1.0" standalone="no"?>
<!DOCTYPE svg PUBLIC "-//W3C//DTD SVG 20010904//EN"
 "http://www.w3.org/TR/2001/REC-SVG-20010904/DTD/svg10.dtd">
<svg version="1.0" xmlns="http://www.w3.org/2000/svg"
 width="600.000000pt" height="600.000000pt" viewBox="0 0 600.000000 600.000000"
 preserveAspectRatio="xMidYMid meet">
<metadata>
Created by potrace 1.11, written by Peter Selinger 2001-2013
</metadata>
<g transform="translate(0.000000,600.000000) scale(0.100000,-0.100000)"
fill="#000000" stroke="none">
<path d="M1875 4574 c-255 -27 -516 -123 -730 -267 -124 -84 -333 -294 -414
-416 -178 -269 -260 -550 -261 -893 0 -438 139 -800 424 -1096 214 -223 447
-364 718 -437 317 -85 748 -69 981 37 l67 31 0 248 c0 137 -3 249 -6 249 -4 0
-45 -15 -93 -34 -116 -47 -269 -77 -426 -83 -347 -15 -618 88 -841 319 -244
252 -342 620 -268 1008 75 395 372 713 762 815 219 58 517 38 742 -49 52 -21
103 -40 113 -43 16 -5 17 11 17 249 l0 255 -27 13 c-60 27 -172 61 -253 76
-82 15 -418 27 -505 18z"/>
<path d="M3202 3008 l3 -1533 260 0 260 0 3 406 2 406 48 -8 c100 -19 363 -28
518 -19 270 18 462 66 655 166 307 160 493 404 566 744 28 130 25 413 -5 534
-46 183 -128 330 -262 470 -169 175 -371 280 -655 338 -93 19 -144 21 -748 25
l-647 4 2 -1533z m1315 1024 c222 -58 377 -199 444 -403 21 -65 24 -91 23
-219 -1 -128 -4 -154 -27 -225 -79 -242 -238 -375 -522 -437 -69 -15 -526 -18
-637 -5 l-68 9 0 655 0 655 353 -5 c319 -3 360 -6 434 -25z"/>
</g>
</svg>
