<?xml version="1.0" encoding="utf-8"?>
<!-- Generator: Adobe Illustrator 22.1.0, SVG Export Plug-In . SVG Version: 6.00 Build 0)  -->
<svg version="1.1" id="Layer_1" xmlns="http://www.w3.org/2000/svg" xmlns:xlink="http://www.w3.org/1999/xlink" x="0px" y="0px"
	 viewBox="0 0 18.7 22.6" style="enable-background:new 0 0 18.7 22.6;" xml:space="preserve">
<style type="text/css">
	.st0{stroke:#000000;stroke-width:0.5;stroke-miterlimit:10;}
</style>
<title>user</title>
<g id="budicon-user">
	<path class="st0" d="M11.9,11.7c3-1.4,4.2-5,2.8-8s-5-4.2-8-2.8s-4.2,5-2.8,8c0.6,1.2,1.6,2.2,2.8,2.8c-3.8,1.1-6.4,4.6-6.4,8.6
		v1.5c0,0.3,0.2,0.5,0.5,0.5s0.5-0.2,0.5-0.5v-1.5c0-4.4,3.6-8,8-8s8,3.6,8,8v1.5c0,0.3,0.2,0.5,0.5,0.5s0.5-0.2,0.5-0.5v-1.5
		C18.3,16.3,15.7,12.8,11.9,11.7z M4.3,6.3c0-2.8,2.2-5,5-5s5,2.2,5,5s-2.2,5-5,5S4.3,9.1,4.3,6.3z"/>
</g>
</svg>
