<svg id="aa7819dd-15dd-4b51-ac76-dba39b25b703" data-name="Layer 1" xmlns="http://www.w3.org/2000/svg" width="14.11" height="14.11" viewBox="0 0 14.11 14.11">
  <path id="baa05492-3e71-4b93-8ff5-960e9b9daf8d" data-name="Icon metro-warning" d="M7.43,2.62,13.34,14.4H1.52Zm0-1.28A1,1,0,0,0,6.59,2l-6,12c-.46.82-.07,1.49.87,1.49h12c.94,0,1.33-.67.87-1.49h0l-6-12A1,1,0,0,0,7.43,1.34ZM8.31,12.8a.88.88,0,1,1-.88-.88h0a.88.88,0,0,1,.88.88ZM7.43,11a.87.87,0,0,1-.88-.88V7.52a.88.88,0,1,1,1.76-.06v2.7A.87.87,0,0,1,7.43,11Z" transform="translate(-0.38 -1.34)"/>
</svg>
